<?xml version="1.0" encoding="UTF-8" standalone="no"?>
<!DOCTYPE svg PUBLIC "-//W3C//DTD SVG 20010904//EN"
              "http://www.w3.org/TR/2001/REC-SVG-20010904/DTD/svg10.dtd">

<svg xmlns="http://www.w3.org/2000/svg"
     width="0.373333in" height="0.17in"
     viewBox="0 0 112 51">
  <path id="パス #1"
        fill="white" stroke="none"
        d="M 11.28,46.00
           C 11.28,46.00 11.08,47.05 11.08,47.05
             11.91,46.33 12.64,46.00 13.20,46.00
             13.83,46.00 14.20,46.36 14.23,47.02
             15.05,46.33 15.78,46.00 16.28,46.00
             16.95,46.00 17.38,46.41 17.38,47.06
             17.38,47.25 17.34,47.45 17.28,47.69
             17.28,47.69 16.94,49.14 16.94,49.14
             16.86,49.45 16.81,49.67 16.81,49.84
             16.81,50.14 17.02,50.33 17.27,50.33
             17.48,50.33 17.73,50.28 18.00,50.22
             18.00,50.22 18.00,50.64 18.00,50.64
             17.31,50.88 16.77,51.00 16.34,51.00
             15.77,51.00 15.45,50.73 15.45,50.23
             15.45,50.09 15.48,49.94 15.55,49.72
             15.55,49.72 15.95,48.02 15.95,48.02
             16.02,47.80 16.05,47.62 16.05,47.45
             16.05,47.11 15.84,46.92 15.48,46.92
             15.16,46.92 14.67,47.12 14.19,47.55
             14.19,47.55 13.55,51.00 13.55,51.00
             13.55,51.00 12.19,51.00 12.19,51.00
             12.19,51.00 12.83,47.97 12.83,47.97
             12.88,47.77 12.91,47.59 12.91,47.47
             12.91,47.12 12.70,46.92 12.36,46.92
             12.06,46.92 11.58,47.12 11.02,47.55
             11.02,47.55 10.34,51.00 10.34,51.00
             10.34,51.00 9.00,51.00 9.00,51.00
             9.00,51.00 9.86,46.95 9.86,46.95
             9.86,46.95 9.00,46.83 9.00,46.83
             9.00,46.83 9.00,46.45 9.00,46.45
             9.00,46.45 10.86,46.00 10.86,46.00
             10.86,46.00 11.28,46.00 11.28,46.00 Z
           M 21.72,46.00
           C 21.72,46.00 21.09,48.95 21.09,48.95
             21.03,49.22 21.00,49.41 21.00,49.53
             21.00,49.89 21.20,50.06 21.58,50.06
             21.89,50.06 22.33,49.92 22.86,49.59
             22.86,49.59 23.59,46.12 23.59,46.12
             23.59,46.12 24.88,45.98 24.88,45.98
             24.88,45.98 24.25,49.03 24.25,49.03
             24.17,49.31 24.12,49.55 24.12,49.75
             24.12,49.94 24.33,50.06 24.58,50.06
             24.80,50.06 25.05,50.09 25.30,50.16
             25.30,50.16 25.30,50.44 25.30,50.44
             24.55,50.80 23.98,51.00 23.61,51.00
             23.08,51.00 22.80,50.70 22.80,50.14
             22.80,50.11 22.80,50.08 22.80,50.05
             21.97,50.69 21.30,51.00 20.84,51.00
             20.22,51.00 19.84,50.59 19.84,49.89
             19.84,49.73 19.86,49.56 19.91,49.36
             19.91,49.36 20.38,46.78 20.38,46.78
             20.38,46.78 19.84,46.67 19.84,46.67
             19.84,46.67 19.84,46.36 19.84,46.36
             19.84,46.36 21.30,46.00 21.30,46.00
             21.30,46.00 21.72,46.00 21.72,46.00 Z
           M 28.92,46.00
           C 28.92,46.00 28.59,47.42 28.59,47.42
             29.36,46.47 30.06,46.00 30.62,46.00
             31.14,46.00 31.50,46.33 31.50,46.81
             31.50,47.30 31.05,47.67 30.34,47.67
             30.34,47.67 30.34,47.67 30.33,47.67
             30.33,47.67 30.00,46.91 30.00,46.91
             29.05,47.25 28.61,47.80 28.42,48.69
             28.42,48.69 27.97,51.00 27.97,51.00
             27.97,51.00 26.50,51.00 26.50,51.00
             26.50,51.00 27.45,46.95 27.45,46.95
             27.45,46.95 26.50,46.81 26.50,46.81
             26.50,46.81 26.50,46.44 26.50,46.44
             26.50,46.44 28.52,45.62 28.52,45.62
             28.52,45.62 28.92,46.00 28.92,46.00 Z
           M 37.61,46.00
           C 37.55,46.17 37.41,46.67 37.23,47.48
             37.23,47.48 36.91,49.08 36.91,49.08
             36.84,49.41 36.81,49.64 36.81,49.77
             36.81,49.98 37.02,50.11 37.27,50.11
             37.48,50.11 37.72,50.14 37.98,50.19
             37.98,50.19 37.98,50.48 37.98,50.48
             37.30,50.83 36.75,51.00 36.34,51.00
             35.83,51.00 35.55,50.72 35.55,50.19
             35.55,50.17 35.55,50.14 35.55,50.12
             34.94,50.70 34.36,51.00 33.83,51.00
             33.00,51.00 32.50,50.31 32.50,49.14
             32.50,48.44 32.70,47.78 33.09,47.19
             33.59,46.44 34.42,46.00 35.31,46.00
             35.72,46.00 36.12,46.00 36.56,46.00
             36.56,46.00 36.97,46.00 36.97,46.00
             36.97,46.00 37.61,46.00 37.61,46.00 Z
           M 35.50,46.53
           C 34.50,46.53 33.66,47.55 33.66,49.00
             33.66,49.73 33.94,50.11 34.47,50.11
             34.81,50.11 35.16,49.95 35.56,49.66
             35.56,49.66 36.08,47.11 36.08,47.11
             36.08,47.11 35.64,46.53 35.64,46.53
             35.59,46.53 35.55,46.53 35.50,46.53 Z
           M 45.11,43.00
           C 45.11,43.00 44.14,48.48 44.14,48.48
             44.14,48.48 45.44,47.05 45.44,47.05
             46.05,46.38 46.45,46.00 46.89,46.00
             47.23,46.00 47.50,46.30 47.50,46.70
             47.50,47.12 47.23,47.45 46.69,47.62
             46.69,47.62 46.33,47.02 46.33,47.02
             45.86,47.39 45.55,47.69 45.41,47.83
             46.17,49.73 46.50,50.66 47.20,50.66
             47.27,50.66 47.38,50.62 47.50,50.58
             47.50,50.58 47.50,50.86 47.50,50.86
             46.94,50.95 46.53,51.00 46.28,51.00
             45.67,51.00 45.44,50.66 45.14,49.98
             45.14,49.98 44.52,48.61 44.52,48.61
             44.52,48.61 44.05,49.09 44.05,49.09
             44.05,49.09 43.70,51.00 43.70,51.00
             43.70,51.00 42.50,51.00 42.50,51.00
             42.50,51.00 43.77,43.98 43.77,43.98
             43.77,43.98 42.88,43.89 42.88,43.89
             42.88,43.89 42.88,43.48 42.88,43.48
             42.88,43.48 44.67,43.00 44.67,43.00
             44.67,43.00 45.11,43.00 45.11,43.00 Z
           M 54.11,46.00
           C 54.05,46.17 53.91,46.67 53.73,47.48
             53.73,47.48 53.41,49.08 53.41,49.08
             53.34,49.41 53.31,49.64 53.31,49.77
             53.31,49.98 53.52,50.11 53.77,50.11
             53.98,50.11 54.22,50.14 54.48,50.19
             54.48,50.19 54.48,50.48 54.48,50.48
             53.80,50.83 53.25,51.00 52.84,51.00
             52.33,51.00 52.05,50.72 52.05,50.19
             52.05,50.17 52.05,50.14 52.05,50.12
             51.44,50.70 50.86,51.00 50.33,51.00
             49.50,51.00 49.00,50.31 49.00,49.14
             49.00,48.44 49.20,47.78 49.59,47.19
             50.09,46.44 50.92,46.00 51.81,46.00
             52.22,46.00 52.62,46.00 53.06,46.00
             53.06,46.00 53.47,46.00 53.47,46.00
             53.47,46.00 54.11,46.00 54.11,46.00 Z
           M 52.00,46.53
           C 51.00,46.53 50.16,47.55 50.16,49.00
             50.16,49.73 50.44,50.11 50.97,50.11
             51.31,50.11 51.66,49.95 52.06,49.66
             52.06,49.66 52.58,47.11 52.58,47.11
             52.58,47.11 52.14,46.53 52.14,46.53
             52.09,46.53 52.05,46.53 52.00,46.53 Z
           M 57.92,46.00
           C 57.92,46.00 57.59,47.42 57.59,47.42
             58.36,46.47 59.06,46.00 59.62,46.00
             60.14,46.00 60.50,46.33 60.50,46.81
             60.50,47.30 60.05,47.67 59.34,47.67
             59.34,47.67 59.34,47.67 59.33,47.67
             59.33,47.67 59.00,46.91 59.00,46.91
             58.05,47.25 57.61,47.80 57.42,48.69
             57.42,48.69 56.97,51.00 56.97,51.00
             56.97,51.00 55.50,51.00 55.50,51.00
             55.50,51.00 56.45,46.95 56.45,46.95
             56.45,46.95 55.50,46.81 55.50,46.81
             55.50,46.81 55.50,46.44 55.50,46.44
             55.50,46.44 57.52,45.62 57.52,45.62
             57.52,45.62 57.92,46.00 57.92,46.00 Z
           M 66.61,46.00
           C 66.55,46.17 66.41,46.67 66.23,47.48
             66.23,47.48 65.91,49.08 65.91,49.08
             65.84,49.41 65.81,49.64 65.81,49.77
             65.81,49.98 66.02,50.11 66.27,50.11
             66.48,50.11 66.72,50.14 66.98,50.19
             66.98,50.19 66.98,50.48 66.98,50.48
             66.30,50.83 65.75,51.00 65.34,51.00
             64.83,51.00 64.55,50.72 64.55,50.19
             64.55,50.17 64.55,50.14 64.55,50.12
             63.94,50.70 63.36,51.00 62.83,51.00
             62.00,51.00 61.50,50.31 61.50,49.14
             61.50,48.44 61.70,47.78 62.09,47.19
             62.59,46.44 63.42,46.00 64.31,46.00
             64.72,46.00 65.12,46.00 65.56,46.00
             65.56,46.00 65.97,46.00 65.97,46.00
             65.97,46.00 66.61,46.00 66.61,46.00 Z
           M 64.50,46.53
           C 63.50,46.53 62.66,47.55 62.66,49.00
             62.66,49.73 62.94,50.11 63.47,50.11
             63.81,50.11 64.16,49.95 64.56,49.66
             64.56,49.66 65.08,47.11 65.08,47.11
             65.08,47.11 64.64,46.53 64.64,46.53
             64.59,46.53 64.55,46.53 64.50,46.53 Z
           M 73.78,46.00
           C 73.78,46.00 73.58,47.05 73.58,47.05
             74.41,46.33 75.14,46.00 75.70,46.00
             76.33,46.00 76.70,46.36 76.73,47.02
             77.55,46.33 78.28,46.00 78.78,46.00
             79.45,46.00 79.88,46.41 79.88,47.06
             79.88,47.25 79.84,47.45 79.78,47.69
             79.78,47.69 79.44,49.14 79.44,49.14
             79.36,49.45 79.31,49.67 79.31,49.84
             79.31,50.14 79.52,50.33 79.77,50.33
             79.98,50.33 80.23,50.28 80.50,50.22
             80.50,50.22 80.50,50.64 80.50,50.64
             79.81,50.88 79.27,51.00 78.84,51.00
             78.27,51.00 77.95,50.73 77.95,50.23
             77.95,50.09 77.98,49.94 78.05,49.72
             78.05,49.72 78.45,48.02 78.45,48.02
             78.52,47.80 78.55,47.62 78.55,47.45
             78.55,47.11 78.34,46.92 77.98,46.92
             77.66,46.92 77.17,47.12 76.69,47.55
             76.69,47.55 76.05,51.00 76.05,51.00
             76.05,51.00 74.69,51.00 74.69,51.00
             74.69,51.00 75.33,47.97 75.33,47.97
             75.38,47.77 75.41,47.59 75.41,47.47
             75.41,47.12 75.20,46.92 74.86,46.92
             74.56,46.92 74.08,47.12 73.52,47.55
             73.52,47.55 72.84,51.00 72.84,51.00
             72.84,51.00 71.50,51.00 71.50,51.00
             71.50,51.00 72.36,46.95 72.36,46.95
             72.36,46.95 71.50,46.83 71.50,46.83
             71.50,46.83 71.50,46.45 71.50,46.45
             71.50,46.45 73.36,46.00 73.36,46.00
             73.36,46.00 73.78,46.00 73.78,46.00 Z
           M 84.22,46.00
           C 84.22,46.00 83.59,48.95 83.59,48.95
             83.53,49.22 83.50,49.41 83.50,49.53
             83.50,49.89 83.70,50.06 84.08,50.06
             84.39,50.06 84.83,49.92 85.36,49.59
             85.36,49.59 86.09,46.12 86.09,46.12
             86.09,46.12 87.38,45.98 87.38,45.98
             87.38,45.98 86.75,49.03 86.75,49.03
             86.67,49.31 86.62,49.55 86.62,49.75
             86.62,49.94 86.83,50.06 87.08,50.06
             87.30,50.06 87.55,50.09 87.80,50.16
             87.80,50.16 87.80,50.44 87.80,50.44
             87.05,50.80 86.48,51.00 86.11,51.00
             85.58,51.00 85.30,50.70 85.30,50.14
             85.30,50.11 85.30,50.08 85.30,50.05
             84.47,50.69 83.80,51.00 83.34,51.00
             82.72,51.00 82.34,50.59 82.34,49.89
             82.34,49.73 82.36,49.56 82.41,49.36
             82.41,49.36 82.88,46.78 82.88,46.78
             82.88,46.78 82.34,46.67 82.34,46.67
             82.34,46.67 82.34,46.36 82.34,46.36
             82.34,46.36 83.80,46.00 83.80,46.00
             83.80,46.00 84.22,46.00 84.22,46.00 Z
           M 91.42,46.00
           C 91.42,46.00 91.09,47.42 91.09,47.42
             91.86,46.47 92.56,46.00 93.12,46.00
             93.64,46.00 94.00,46.33 94.00,46.81
             94.00,47.30 93.55,47.67 92.84,47.67
             92.84,47.67 92.84,47.67 92.83,47.67
             92.83,47.67 92.50,46.91 92.50,46.91
             91.55,47.25 91.11,47.80 90.92,48.69
             90.92,48.69 90.47,51.00 90.47,51.00
             90.47,51.00 89.00,51.00 89.00,51.00
             89.00,51.00 89.95,46.95 89.95,46.95
             89.95,46.95 89.00,46.81 89.00,46.81
             89.00,46.81 89.00,46.44 89.00,46.44
             89.00,46.44 91.02,45.62 91.02,45.62
             91.02,45.62 91.42,46.00 91.42,46.00 Z
           M 100.11,46.00
           C 100.05,46.17 99.91,46.67 99.73,47.48
             99.73,47.48 99.41,49.08 99.41,49.08
             99.34,49.41 99.31,49.64 99.31,49.77
             99.31,49.98 99.52,50.11 99.77,50.11
             99.98,50.11 100.22,50.14 100.48,50.19
             100.48,50.19 100.48,50.48 100.48,50.48
             99.80,50.83 99.25,51.00 98.84,51.00
             98.33,51.00 98.05,50.72 98.05,50.19
             98.05,50.17 98.05,50.14 98.05,50.12
             97.44,50.70 96.86,51.00 96.33,51.00
             95.50,51.00 95.00,50.31 95.00,49.14
             95.00,48.44 95.20,47.78 95.59,47.19
             96.09,46.44 96.92,46.00 97.81,46.00
             98.22,46.00 98.62,46.00 99.06,46.00
             99.06,46.00 99.47,46.00 99.47,46.00
             99.47,46.00 100.11,46.00 100.11,46.00 Z
           M 98.00,46.53
           C 97.00,46.53 96.16,47.55 96.16,49.00
             96.16,49.73 96.44,50.11 96.97,50.11
             97.31,50.11 97.66,49.95 98.06,49.66
             98.06,49.66 98.58,47.11 98.58,47.11
             98.58,47.11 98.14,46.53 98.14,46.53
             98.09,46.53 98.05,46.53 98.00,46.53 Z
           M 32.55,9.72
           C 32.60,7.95 32.63,6.98 32.66,6.83
             32.79,5.63 33.07,4.75 33.48,4.17
             32.55,2.48 30.99,1.33 28.83,0.73
             28.08,0.91 27.02,1.23 25.67,1.70
             25.67,1.70 25.62,2.33 25.62,2.33
             25.76,2.59 26.14,2.98 26.78,3.50
             27.41,4.02 27.85,4.49 28.09,4.91
             28.27,6.42 28.36,7.76 28.36,8.94
             28.36,9.43 28.35,9.88 28.33,10.30
             26.94,10.61 25.31,11.04 23.44,11.59
             22.39,11.96 21.35,12.32 20.31,12.69
             19.04,13.12 18.00,13.37 17.19,13.42
             17.19,13.42 16.88,13.70 16.88,13.70
             16.88,14.12 17.20,14.62 17.86,15.22
             18.33,15.64 18.80,16.07 19.30,16.52
             19.30,16.52 19.84,16.44 19.84,16.44
             22.01,14.88 24.90,14.04 28.52,13.94
             28.75,16.88 28.88,20.16 28.88,23.78
             28.88,25.14 28.86,26.23 28.83,27.06
             28.77,28.78 28.11,29.64 26.84,29.64
             25.70,29.64 23.90,29.20 21.45,28.31
             21.45,28.31 21.38,28.62 21.38,28.62
             22.83,30.40 23.94,31.71 24.69,32.56
             25.31,33.41 25.95,34.23 26.61,35.03
             27.39,35.84 28.29,36.36 29.30,36.59
             30.32,36.02 31.19,35.12 31.92,33.89
             32.65,32.67 33.02,31.48 33.02,30.30
             33.02,29.81 32.95,29.15 32.81,28.31
             32.66,27.27 32.58,26.61 32.58,26.31
             32.45,25.01 32.36,23.63 32.31,22.17
             32.23,18.40 32.18,15.56 32.16,13.66
             32.75,13.66 33.64,13.80 34.84,14.09
             36.04,14.38 36.94,14.52 37.55,14.52
             37.96,14.52 38.32,14.36 38.61,14.05
             38.91,13.73 39.06,13.37 39.06,12.95
             39.06,10.98 36.89,9.90 32.55,9.72 Z
           M 24.55,20.36
           C 24.20,19.48 23.78,18.86 23.28,18.47
             22.11,17.50 20.71,17.02 19.06,17.02
             19.06,17.02 19.06,17.33 19.06,17.33
             19.63,18.16 20.02,19.28 20.20,20.69
             20.43,22.49 20.60,23.56 20.70,23.89
             21.07,24.93 21.81,25.69 22.94,26.16
             23.53,25.95 24.04,25.49 24.45,24.78
             24.87,24.06 25.08,23.37 25.08,22.69
             25.08,22.01 24.90,21.23 24.55,20.36 Z
           M 16.78,18.52
           C 15.81,17.75 14.84,16.98 13.88,16.23
             13.91,15.90 13.92,15.59 13.92,15.31
             13.92,15.05 13.91,14.79 13.88,14.53
             15.16,14.07 15.94,13.77 16.23,13.61
             17.27,13.06 17.80,12.47 17.80,11.84
             17.80,10.62 16.71,10.05 14.55,10.12
             14.55,10.12 14.00,10.12 14.00,10.12
             14.00,9.90 14.00,9.66 14.00,9.42
             14.00,8.02 14.35,6.61 15.05,5.20
             15.05,5.20 15.05,5.09 15.05,5.09
             15.08,4.21 14.46,3.46 13.20,2.86
             12.24,2.37 11.29,2.12 10.34,2.12
             9.98,2.12 9.61,2.16 9.25,2.23
             9.25,2.23 9.02,2.78 9.02,2.78
             9.85,3.75 10.46,4.57 10.84,5.25
             10.95,6.29 11.00,7.32 11.00,8.33
             11.00,9.35 10.94,10.37 10.83,11.38
             9.70,11.88 8.58,12.37 7.47,12.86
             5.75,13.62 4.71,14.00 4.34,14.00
             3.56,14.00 2.80,13.95 2.08,13.84
             2.08,13.84 1.69,14.22 1.69,14.22
             2.16,14.93 2.62,15.65 3.09,16.38
             3.89,17.46 4.58,18.00 5.16,18.00
             5.29,18.00 5.44,17.98 5.59,17.92
             5.96,17.60 6.57,17.26 7.42,16.91
             8.13,16.65 8.82,16.39 9.50,16.12
             7.62,20.24 4.54,24.01 0.23,27.42
             0.23,27.42 0.47,27.58 0.47,27.58
             0.97,27.63 1.43,27.66 1.84,27.66
             5.18,27.66 8.00,25.71 10.33,21.83
             10.33,24.52 10.32,26.55 10.30,27.92
             10.27,28.27 10.21,28.79 10.12,29.50
             10.04,30.20 10.00,30.73 10.00,31.09
             10.00,33.80 10.82,35.41 12.47,35.94
             13.49,35.55 14.00,33.75 14.00,30.55
             14.00,30.34 13.96,27.24 13.88,21.25
             15.05,22.87 16.07,23.67 16.94,23.67
             17.35,23.67 17.70,23.48 17.97,23.11
             18.24,22.73 18.38,22.31 18.38,21.88
             18.38,20.65 17.84,19.53 16.78,18.52 Z
           M 66.91,10.88
           C 66.96,9.20 67.00,8.29 67.03,8.14
             67.14,7.00 67.40,6.15 67.80,5.61
             66.91,4.01 65.44,2.92 63.39,2.34
             62.67,2.52 61.66,2.84 60.38,3.28
             60.38,3.28 60.34,3.88 60.34,3.88
             60.47,4.12 60.83,4.48 61.44,4.98
             62.04,5.48 62.46,5.92 62.69,6.31
             62.85,7.75 62.94,9.03 62.94,10.14
             62.94,10.61 62.93,11.04 62.91,11.44
             61.59,11.74 60.05,12.15 58.27,12.66
             57.27,13.01 56.29,13.36 55.30,13.70
             54.09,14.12 53.10,14.36 52.33,14.41
             52.33,14.41 52.03,14.67 52.03,14.67
             52.03,15.07 52.34,15.55 52.95,16.11
             53.40,16.51 53.86,16.92 54.33,17.34
             54.33,17.34 54.86,17.27 54.86,17.27
             56.91,15.78 59.66,14.98 63.09,14.89
             63.31,17.68 63.42,20.80 63.42,24.23
             63.42,25.53 63.41,26.57 63.39,27.36
             63.34,29.00 62.71,29.81 61.50,29.81
             60.41,29.81 58.70,29.39 56.38,28.55
             56.38,28.55 56.30,28.84 56.30,28.84
             57.68,30.52 58.73,31.77 59.45,32.59
             60.05,33.38 60.65,34.16 61.27,34.94
             62.02,35.70 62.87,36.19 63.83,36.42
             64.80,35.87 65.62,35.01 66.31,33.84
             67.01,32.69 67.36,31.55 67.36,30.44
             67.36,29.97 67.30,29.34 67.17,28.55
             67.02,27.56 66.95,26.93 66.95,26.66
             66.83,25.42 66.74,24.11 66.69,22.72
             66.61,19.14 66.57,16.44 66.55,14.62
             67.11,14.62 67.96,14.77 69.09,15.05
             70.24,15.32 71.09,15.45 71.66,15.45
             72.05,15.45 72.39,15.31 72.67,15.02
             72.96,14.71 73.11,14.37 73.11,13.97
             73.11,12.09 71.04,11.05 66.91,10.88 Z
           M 59.33,21.00
           C 58.99,20.17 58.59,19.56 58.12,19.19
             57.01,18.28 55.67,17.83 54.11,17.83
             54.11,17.83 54.11,18.12 54.11,18.12
             54.65,18.92 55.01,19.98 55.19,21.31
             55.41,23.02 55.57,24.04 55.67,24.36
             56.02,25.35 56.72,26.06 57.78,26.50
             58.35,26.30 58.84,25.87 59.23,25.19
             59.63,24.51 59.83,23.85 59.83,23.20
             59.83,22.56 59.66,21.82 59.33,21.00 Z
           M 52.64,19.48
           C 51.72,18.73 50.47,17.98 48.89,17.23
             48.91,16.90 48.92,16.59 48.92,16.31
             48.92,16.05 48.91,15.79 48.89,15.53
             50.77,15.07 51.84,14.77 52.11,14.62
             53.10,14.11 53.59,13.55 53.59,12.95
             53.59,11.80 52.57,11.26 50.52,11.33
             50.52,11.33 50.00,11.33 50.00,11.33
             49.33,11.10 49.00,10.88 49.00,10.66
             49.00,9.32 49.33,7.99 50.00,6.66
             50.00,6.66 50.00,6.53 50.00,6.53
             50.02,5.70 49.42,5.00 48.20,4.42
             47.24,3.95 46.30,3.72 45.38,3.72
             45.02,3.72 44.67,3.76 44.33,3.83
             44.33,3.83 44.11,4.34 44.11,4.34
             44.90,5.26 45.48,6.04 45.86,6.69
             45.95,7.68 46.00,8.66 46.00,9.62
             46.00,10.59 46.00,11.55 46.00,12.52
             45.46,12.98 44.66,13.45 43.59,13.92
             41.96,14.64 40.97,15.00 40.62,15.00
             39.88,15.00 39.16,14.95 38.47,14.84
             38.47,14.84 38.09,15.22 38.09,15.22
             38.54,15.93 38.99,16.65 39.44,17.38
             40.20,18.46 40.85,19.00 41.41,19.00
             41.52,19.00 41.66,18.98 41.81,18.92
             42.16,18.60 42.73,18.26 43.55,17.91
             44.21,17.65 44.87,17.39 45.52,17.12
             43.73,21.11 40.80,24.71 36.72,27.95
             36.72,27.95 36.95,28.09 36.95,28.09
             37.42,28.15 37.85,28.17 38.25,28.17
             41.41,28.17 44.00,26.33 46.00,22.64
             46.00,25.20 46.00,27.12 46.00,28.44
             46.00,28.75 46.00,29.25 46.00,29.92
             46.00,30.59 46.00,31.09 46.00,31.44
             46.00,34.01 46.82,35.55 48.47,36.05
             49.49,35.67 50.00,33.96 50.00,30.92
             50.00,30.73 49.63,27.78 48.89,22.08
             50.67,23.62 51.97,24.39 52.78,24.39
             53.18,24.39 53.50,24.21 53.77,23.86
             54.02,23.50 54.16,23.10 54.16,22.67
             54.16,21.52 53.65,20.45 52.64,19.48 Z
           M 104.55,9.72
           C 104.60,7.95 104.63,6.98 104.66,6.83
             104.79,5.63 105.07,4.75 105.48,4.17
             104.55,2.48 102.99,1.33 100.83,0.73
             100.08,0.91 99.02,1.23 97.67,1.70
             97.67,1.70 97.62,2.33 97.62,2.33
             97.76,2.59 98.14,2.98 98.78,3.50
             99.41,4.02 99.85,4.49 100.09,4.91
             100.27,6.42 100.36,7.76 100.36,8.94
             100.36,9.43 100.35,9.88 100.33,10.30
             98.94,10.61 97.31,11.04 95.44,11.59
             94.39,11.96 93.35,12.32 92.31,12.69
             91.04,13.12 90.00,13.37 89.19,13.42
             89.19,13.42 88.88,13.70 88.88,13.70
             88.88,14.12 89.20,14.62 89.86,15.22
             90.33,15.64 90.80,16.07 91.30,16.52
             91.30,16.52 91.84,16.44 91.84,16.44
             94.01,14.88 96.90,14.04 100.52,13.94
             100.75,16.88 100.88,20.16 100.88,23.78
             100.88,25.14 100.86,26.23 100.83,27.06
             100.77,28.78 100.11,29.64 98.84,29.64
             97.70,29.64 95.90,29.20 93.45,28.31
             93.45,28.31 93.38,28.62 93.38,28.62
             94.83,30.40 95.94,31.71 96.69,32.56
             97.31,33.41 97.95,34.23 98.61,35.03
             99.39,35.84 100.29,36.36 101.30,36.59
             102.32,36.02 103.19,35.12 103.92,33.89
             104.65,32.67 105.02,31.48 105.02,30.30
             105.02,29.81 104.95,29.15 104.81,28.31
             104.66,27.27 104.58,26.61 104.58,26.31
             104.45,25.01 104.36,23.63 104.31,22.17
             104.23,18.40 104.18,15.56 104.16,13.66
             104.75,13.66 105.64,13.80 106.84,14.09
             108.04,14.38 108.94,14.52 109.55,14.52
             109.96,14.52 110.32,14.36 110.61,14.05
             110.91,13.73 111.06,13.37 111.06,12.95
             111.06,10.98 108.89,9.90 104.55,9.72 Z
           M 96.55,20.36
           C 96.20,19.48 95.78,18.86 95.28,18.47
             94.11,17.50 92.71,17.02 91.06,17.02
             91.06,17.02 91.06,17.33 91.06,17.33
             91.63,18.16 92.02,19.28 92.20,20.69
             92.43,22.49 92.60,23.56 92.70,23.89
             93.07,24.93 93.81,25.69 94.94,26.16
             95.53,25.95 96.04,25.49 96.45,24.78
             96.87,24.06 97.08,23.37 97.08,22.69
             97.08,22.01 96.90,21.23 96.55,20.36 Z
           M 88.78,18.52
           C 87.81,17.75 86.84,16.98 85.88,16.23
             85.91,15.90 85.92,15.59 85.92,15.31
             85.92,15.05 85.91,14.79 85.88,14.53
             87.16,14.07 87.94,13.77 88.23,13.61
             89.27,13.06 89.80,12.47 89.80,11.84
             89.80,10.62 88.71,10.05 86.55,10.12
             86.55,10.12 86.00,10.12 86.00,10.12
             86.00,9.90 86.00,9.66 86.00,9.42
             86.00,8.02 86.35,6.61 87.05,5.20
             87.05,5.20 87.05,5.09 87.05,5.09
             87.08,4.21 86.46,3.46 85.20,2.86
             84.24,2.37 83.29,2.12 82.34,2.12
             81.98,2.12 81.61,2.16 81.25,2.23
             81.25,2.23 81.02,2.78 81.02,2.78
             81.85,3.75 82.46,4.57 82.84,5.25
             82.95,6.29 83.00,7.32 83.00,8.33
             83.00,9.35 82.94,10.37 82.83,11.38
             81.70,11.88 80.58,12.37 79.47,12.86
             77.75,13.62 76.71,14.00 76.34,14.00
             75.56,14.00 74.80,13.95 74.08,13.84
             74.08,13.84 73.69,14.22 73.69,14.22
             74.16,14.93 74.62,15.65 75.09,16.38
             75.89,17.46 76.58,18.00 77.16,18.00
             77.29,18.00 77.44,17.98 77.59,17.92
             77.96,17.60 78.57,17.26 79.42,16.91
             80.13,16.65 80.82,16.39 81.50,16.12
             79.62,20.24 76.54,24.01 72.23,27.42
             72.23,27.42 72.47,27.58 72.47,27.58
             72.97,27.63 73.43,27.66 73.84,27.66
             77.18,27.66 80.00,25.71 82.33,21.83
             82.33,24.52 82.32,26.55 82.30,27.92
             82.27,28.27 82.21,28.79 82.12,29.50
             82.04,30.20 82.00,30.73 82.00,31.09
             82.00,33.80 82.82,35.41 84.47,35.94
             85.49,35.55 86.00,33.75 86.00,30.55
             86.00,30.34 85.96,27.24 85.88,21.25
             87.05,22.87 88.07,23.67 88.94,23.67
             89.35,23.67 89.70,23.48 89.97,23.11
             90.24,22.73 90.38,22.31 90.38,21.88
             90.38,20.65 89.84,19.53 88.78,18.52 Z" />
</svg>
